<svg width="320px" height="189px" xmlns="http://www.w3.org/2000/svg" viewBox="89.53125 -19.800006103515628 320.9375 189.60001220703126" style="background: none;" preserveAspectRatio="xMidYMid"><defs><filter id="editing-extrusion" x="-100%" y="-100%" width="300%" height="300%"><feFlood result="color1" flood-color="#d8ebf9"></feFlood><feConvolveMatrix order="8,8" divisor="1" kernelMatrix="1 0 0 0 0 0 0 0 0 1 0 0 0 0 0 0 0 0 1 0 0 0 0 0 0 0 0 1 0 0 0 0 0 0 0 0 1 0 0 0 0 0 0 0 0 1 0 0 0 0 0 0 0 0 1 0 0 0 0 0 0 0 0 1" in="SourceAlpha" result="extrude"></feConvolveMatrix><feComposite in="color1" in2="extrude" result="comp-extrude" operator="in"></feComposite><feOffset dx="4" dy="4" in="comp-extrude" result="offset-extrude"></feOffset><feMerge><feMergeNode in="offset-extrude"></feMergeNode><feMergeNode in="SourceGraphic"></feMergeNode></feMerge></filter></defs><g filter="url(#editing-extrusion)"><g transform="translate(141.9817435145378, 124.75499534606934)"><path d="M22.42 1.07L22.42 1.07L22.42 1.07Q17.33 0 14.71-0.48L14.71-0.48L14.71-0.48Q12.09-0.96 9.04-0.96L9.04-0.96L9.04-0.96Q5.99-0.96 3.00 0.11L3.00 0.11L3.00 0.11Q1.39-0.86 0.37-2.78L0.37-2.78L0.37-2.78Q-0.64-4.71-0.64-7.70L-0.64-7.70L-0.64-7.70Q-0.64-14.02 5.78-18.83L5.78-18.83L32.96-38.41L32.96-38.41Q25.36-40.55 18.46-40.55L18.46-40.55L18.46-40.55Q11.56-40.55 9.10-35.84L9.10-35.84L9.10-35.84Q5.46-40.13 5.46-46.87L5.46-46.87L5.46-46.87Q5.46-51.36 8.72-54.30L8.72-54.30L8.72-54.30Q11.98-57.24 18.83-57.24L18.83-57.24L18.83-57.24Q22.68-57.24 26.16-56.76L26.16-56.76L26.16-56.76Q29.64-56.28 32.74-55.85L32.74-55.85L38.52-55.00L38.52-55.00Q41.30-54.57 44.14-54.57L44.14-54.57L44.14-54.57Q46.97-54.57 49.11-55.75L49.11-55.75L49.11-55.75Q51.89-53.18 51.89-49.65L51.89-49.65L51.89-49.65Q51.89-44.08 45.05-38.31L45.05-38.31L17.98-18.08L17.98-18.08Q26.32-15.62 30.60-15.62L30.60-15.62L30.60-15.62Q39.59-15.62 43.44-19.90L43.44-19.90L43.44-19.90Q46.44-16.48 46.44-10.54L46.44-10.54L46.44-10.54Q46.44-4.60 42.59-1.23L42.59-1.23L42.59-1.23Q38.73 2.14 31.78 2.14L31.78 2.14L31.78 2.14Q27.50 2.14 22.42 1.07ZM81.43-5.88L81.43-5.88L81.43-5.88Q78.11 2.14 67.52 2.14L67.52 2.14L67.52 2.14Q62.06 2.14 58.64-1.60L58.64-1.60L58.64-1.60Q55.75-4.92 55.75-8.24L55.75-8.24L55.75-8.24Q55.75-16.91 59.71-33.81L59.71-33.81L63.66-54.57L85.39-56.71L78.86-22.90L78.86-22.90Q77.04-14.98 77.04-12.20L77.04-12.20L77.04-12.20Q77.04-6.10 81.43-5.88ZM65.59-69.44L65.59-69.44L65.59-69.44Q65.59-73.62 69.07-75.86L69.07-75.86L69.07-75.86Q72.55-78.11 77.57-78.11L77.57-78.11L77.57-78.11Q82.60-78.11 85.65-75.86L85.65-75.86L85.65-75.86Q88.70-73.62 88.70-69.44L88.70-69.44L88.70-69.44Q88.70-65.27 85.33-63.13L85.33-63.13L85.33-63.13Q81.96-60.99 76.93-60.99L76.93-60.99L76.93-60.99Q71.90-60.99 68.75-63.13L68.75-63.13L68.75-63.13Q65.59-65.27 65.59-69.44ZM140.38-7.33L140.38-7.33L140.38-7.33Q135.89-2.78 129.74-0.32L129.74-0.32L129.74-0.32Q123.59 2.14 117.49 2.14L117.49 2.14L117.49 2.14Q111.39 2.14 109.25 1.07L109.25 1.07L105.93 19.26L84.21 21.40L98.98-54.57L116.42-56.39L115.03-49.01L115.03-49.01Q119.52-56.60 128.83-56.60L128.83-56.60L128.83-56.60Q139.31-56.60 144.88-49.86L144.88-49.86L144.88-49.86Q149.80-43.76 149.80-34.45L149.80-34.45L149.80-34.45Q149.80-25.14 147.34-18.51L147.34-18.51L147.34-18.51Q144.88-11.88 140.38-7.33ZM116.20-37.34L110.53-5.99L110.53-5.99Q112.78-4.07 115.56-4.07L115.56-4.07L115.56-4.07Q118.34-4.07 119.95-5.14L119.95-5.14L119.95-5.14Q121.55-6.21 122.73-8.35L122.73-8.35L122.73-8.35Q125.94-14.12 128.51-31.67L128.51-31.67L128.51-31.67Q129.26-36.81 129.26-41.84L129.26-41.84L129.26-41.84Q129.26-46.87 128.13-48.47L128.13-48.47L128.13-48.47Q127.01-50.08 124.87-50.08L124.87-50.08L124.87-50.08Q118.34-50.08 116.20-37.34L116.20-37.34ZM206.08-7.33L206.08-7.33L206.08-7.33Q201.59-2.78 195.44-0.32L195.44-0.32L195.44-0.32Q189.28 2.14 183.18 2.14L183.18 2.14L183.18 2.14Q177.09 2.14 174.95 1.07L174.95 1.07L171.63 19.26L149.91 21.40L164.67-54.57L182.11-56.39L180.72-49.01L180.72-49.01Q185.22-56.60 194.53-56.60L194.53-56.60L194.53-56.60Q205.01-56.60 210.58-49.86L210.58-49.86L210.58-49.86Q215.50-43.76 215.50-34.45L215.50-34.45L215.50-34.45Q215.50-25.14 213.04-18.51L213.04-18.51L213.04-18.51Q210.58-11.88 206.08-7.33ZM181.90-37.34L176.23-5.99L176.23-5.99Q178.48-4.07 181.26-4.07L181.26-4.07L181.26-4.07Q184.04-4.07 185.65-5.14L185.65-5.14L185.65-5.14Q187.25-6.21 188.43-8.35L188.43-8.35L188.43-8.35Q191.64-14.12 194.21-31.67L194.21-31.67L194.21-31.67Q194.95-36.81 194.95-41.84L194.95-41.84L194.95-41.84Q194.95-46.87 193.83-48.47L193.83-48.47L193.83-48.47Q192.71-50.08 190.57-50.08L190.57-50.08L190.57-50.08Q184.04-50.08 181.90-37.34L181.90-37.34Z" fill="#5699d2"></path></g></g><style>text {
  font-size: 64px;
  font-family: Arial Black;
  dominant-baseline: central;
  text-anchor: middle;
}</style></svg>